<svg width="1304" height="75" viewBox="0 0 1304 75" fill="none" xmlns="http://www.w3.org/2000/svg">
<path d="M27.776 73H54.368L58.592 46.312L102.944 1.576H72.8L48.128 26.248L31.52 1.576H0.896L32 46.12L27.776 73ZM93.8863 34.408C91.5823 49.384 96.6703 74.152 137.566 74.152H141.31C179.23 74.152 186.91 50.152 189.214 34.792L194.494 1.576H167.806L162.814 33.448C161.278 42.28 156.67 52.744 139.87 52.744H139.774C122.11 52.744 119.23 42.28 120.766 33.064L125.758 1.576H99.0703L93.8863 34.408ZM186.168 73H238.68C279.192 73 289.176 55.432 291.48 40.552C291.864 37.96 292.056 35.272 292.056 32.296C292.056 16.168 281.304 1.576 244.056 1.576H197.496L186.168 73ZM221.016 20.296H240.792C260.76 20.296 264.216 27.976 264.216 34.504C264.216 39.208 263.16 54.088 235.512 54.088H215.64L221.016 20.296ZM344.337 43.624H321.105L335.985 18.952L344.337 43.624ZM354.225 73H382.737L356.529 1.576H320.913L276.369 73H303.537L310.449 61.48H350.289L354.225 73ZM391.405 1.576L380.077 73H457.645L460.429 55.144H409.069L410.701 45.352H460.333L463.117 27.976H413.485L414.829 19.048H465.421L468.205 1.576H391.405ZM489.97 73H525.394L568.018 1.576H539.89L510.706 51.688L494.29 1.576H465.01L489.97 73ZM577.424 73H644.24C669.008 73 676.208 61.96 676.208 49.288C676.208 38.536 667.76 34.12 662.576 32.776C668.144 31.528 677.36 27.208 677.36 17.416C677.36 8.392 671.792 1.576 653.264 1.576H588.752L577.424 73ZM611.12 27.88L612.752 17.8H643.376C648.464 17.8 649.904 19.624 649.904 22.312C649.904 25.096 647.984 27.88 642.128 27.88H611.12ZM606.704 56.2L608.624 43.912H640.88C647.12 43.912 648.368 46.6 648.368 49.288C648.368 52.072 646.736 56.2 639.152 56.2H606.704ZM706.045 31.24L708.061 18.952H738.493C743.965 18.952 745.789 21.16 745.789 24.328C745.789 27.688 743.389 31.24 736.861 31.24H706.045ZM703.357 48.52H728.605C739.261 48.52 742.333 52.84 741.085 61L739.837 68.872C739.453 71.272 739.549 72.328 739.933 73H767.101L767.197 72.52C766.909 71.368 766.333 69.448 767.101 64.936L768.925 53.704C770.461 44.392 764.701 39.304 757.117 37C764.413 35.272 774.109 29.896 774.109 18.664C774.109 8.392 766.525 1.576 747.901 1.576H684.253L672.925 73H699.517L703.357 48.52ZM831 43.624H807.768L822.648 18.952L831 43.624ZM840.888 73H869.4L843.192 1.576H807.576L763.032 73H790.2L797.112 61.48H836.952L840.888 73ZM878.068 1.576L866.74 73H893.14L900.052 29.128L936.244 73H962.548L973.876 1.576H947.572L941.044 42.856L907.54 1.576H878.068ZM966.179 73H1018.69C1059.2 73 1069.19 55.432 1071.49 40.552C1071.87 37.96 1072.07 35.272 1072.07 32.296C1072.07 16.168 1061.31 1.576 1024.07 1.576H977.507L966.179 73ZM1001.03 20.296H1020.8C1040.77 20.296 1044.23 27.976 1044.23 34.504C1044.23 39.208 1043.17 54.088 1015.52 54.088H995.651L1001.03 20.296ZM1105.13 1.576H1078.54L1067.21 73H1093.8L1105.13 1.576ZM1108.79 1.576L1097.46 73H1123.86L1130.77 29.128L1166.97 73H1193.27L1204.6 1.576H1178.29L1171.77 42.856L1138.26 1.576H1108.79ZM1246.15 74.344C1266.6 74.344 1276.01 66.088 1278.79 63.016C1279.85 65.512 1280.52 70.6 1280.52 73H1296.74L1303.08 32.776H1251.62L1249.41 46.696H1273.99C1273.51 49 1267.08 55.624 1249.51 55.624C1233.67 55.624 1227.62 48.328 1227.62 39.688C1227.62 38.44 1227.72 37.384 1228.01 35.848C1229.25 27.304 1235.49 18.856 1254.21 18.856C1273.61 18.856 1275.14 26.056 1275.62 27.88H1303.17C1303.56 17.704 1298.57 0.231998 1256.04 0.231998H1253.06C1212.07 0.231998 1202.66 19.24 1200.36 34.216C1199.97 36.808 1199.78 39.304 1199.78 41.512C1199.78 56.2 1208.9 74.344 1244.13 74.344H1246.15Z" fill="#242424"/>
</svg>
